# xmcd
#
# Track frame offsets: 
#        150
#        10012
#        23523
#        32550
#        42512
#        53465
#        64396
#        74310
#        87014
#        98753
#        108839
#        118445
#
# Disc length: 1751 seconds
#
# Revision: 0
# Processed by: cddbd v1.5.2PL0 Copyright (c) Steve Scherf et al.
# Submitted via: ExactAudioCopy v1.0b3
#
DISCID=9106d50c
DTITLE=Patsy Cline - The Patsy Cline Story (1 of 2)
DYEAR=1900
DGENRE=Oldies
TTITLE0=Heartaches
TTITLE1=She's Got You
TTITLE2=Walkin' After Midnight
TTITLE3=Strange
TTITLE4=Leavin' On Your Mind
TTITLE5=South Of The Border (Down Mexico Way)
TTITLE6=Foolin' Around
TTITLE7=I Fall To Pieces
TTITLE8=A Poor Man's Roses (Or A Rich Man's Gold)
TTITLE9=Tra Le La Le La Triangle
TTITLE10=True Love
TTITLE11=Imagine That
EXTD=
EXTT0=
EXTT1=
EXTT2=
EXTT3=
EXTT4=
EXTT5=
EXTT6=
EXTT7=
EXTT8=
EXTT9=
EXTT10=
EXTT11=
PLAYORDER=
